PathFileType  4	(X/Y/Z) C:\Users\antoi\Documents\MyRepositories\mobilecap\ResultsAnalysis
DataRate	CameraRate	NumFrames	NumMarkers	Units	OrigDataRate	OrigDataStartFrame	OrigNumFrames
100.0	100.0	4	51	mm	100.0	89	141
Frame#	Time	r_knee			r_shank_antsup			r_ankle			r_calc			r_5meta			r_toe			L_knee			L_shank_antsup			L_ankle			L_calc			L_5meta			L_toe			r_sh2			r_sh3			r_sh4			L_sh2			L_sh3			r_thigh1			r_thigh2			r_thigh3			r_thigh4			r_thigh5			L_thigh1			L_thigh2			L_thigh3			L_thigh4			r.ASIS			r.PSIS			L.ASIS			L.PSIS			C7			R_Shoulder			L_Shoulder			R_Sternum			L_Sternum			R_humerus			R_elbow_med			R_elbow_lat			R_forearm			R_wrist_radius			R_wrist_ulna			L_humerus			L_elbow_med			L_elbow_lat			L_forearm			L_wrist_radius			L_wrist_ulna			R_HJC			L_HJC			R_HJC_reg			L_HJC_reg			
		X1	Y1	Z1	X2	Y2	Z2	X3	Y3	Z3	X4	Y4	Z4	X5	Y5	Z5	X6	Y6	Z6	X7	Y7	Z7	X8	Y8	Z8	X9	Y9	Z9	X10	Y10	Z10	X11	Y11	Z11	X12	Y12	Z12	X13	Y13	Z13	X14	Y14	Z14	X15	Y15	Z15	X16	Y16	Z16	X17	Y17	Z17	X18	Y18	Z18	X19	Y19	Z19	X20	Y20	Z20	X21	Y21	Z21	X22	Y22	Z22	X23	Y23	Z23	X24	Y24	Z24	X25	Y25	Z25	X26	Y26	Z26	X27	Y27	Z27	X28	Y28	Z28	X29	Y29	Z29	X30	Y30	Z30	X31	Y31	Z31	X32	Y32	Z32	X33	Y33	Z33	X34	Y34	Z34	X35	Y35	Z35	X36	Y36	Z36	X37	Y37	Z37	X38	Y38	Z38	X39	Y39	Z39	X40	Y40	Z40	X41	Y41	Z41	X42	Y42	Z42	X43	Y43	Z43	X44	Y44	Z44	X45	Y45	Z45	X46	Y46	Z46	X47	Y47	Z47	X48	Y48	Z48	X49	Y49	Z49	X50	Y50	Z50	X51	Y51	Z51	

89	0.88000000	1034.97825	575.16137	-39.90228	1014.69645	496.72529	-28.92437	748.14855	255.31116	-80.26350	678.31735	256.34984	-136.68758	804.84653	104.13300	-41.44498	856.34995	104.46891	-92.93603	860.44930	537.81600	-325.40060	893.14337	419.14820	-327.10122	845.69842	93.66411	-278.90714	775.65886	53.88409	-241.34184	1020.90696	60.89013	-238.47830	1003.47909	31.38759	-304.33896	940.84787	410.14590	-30.45014	954.51199	547.27667	-21.21402	873.53678	465.10981	-30.91146	803.18131	425.13563	-344.83058	806.29195	305.22704	-334.86241	981.63573	884.81460	-18.06172	1036.25581	791.56659	-23.03537	997.84177	741.04399	1.27836	883.86247	825.80465	-19.72963	945.33925	728.35779	-14.91607	932.84696	862.99156	-368.24941	940.55322	726.69943	-352.93866	813.89980	854.10966	-373.51747	832.29179	712.73181	-361.38248	944.88680	1055.26642	-74.77184	749.17909	1090.38822	-145.16516	942.19689	1056.54793	-334.27445	745.65839	1095.15836	-249.25755	746.48255	1600.83386	-224.39467	804.27183	1561.26886	-44.15326	826.86754	1557.86208	-381.71295	896.25243	1531.74490	-182.81188	899.82968	1527.40075	-236.50029	795.07266	1296.50396	60.51773	756.13877	1196.55484	-2.27294	776.28075	1210.81904	78.66376	858.47108	1073.11347	97.20491	910.87260	969.69999	89.11100	870.42878	966.21721	110.64676	876.52390	1304.23098	-475.25505	830.21461	1199.72368	-432.49510	871.59210	1214.56275	-489.79796	973.55521	1073.58861	-488.02278	1030.02122	993.25226	-466.46128	1003.34256	977.89214	-491.25472	862.12680	974.40720	-79.92512	858.81203	977.76266	-310.24014	875.22226	973.46325	-112.90113	869.43555	981.29960	-283.90497	
90	0.89000000	1053.06380	577.61630	-42.39097	1035.46151	498.40550	-30.54894	780.00378	244.77665	-79.93805	709.78205	240.25818	-136.14572	847.08957	98.28109	-40.08082	898.08043	101.43717	-92.01100	866.84639	537.87883	-324.50225	897.93834	418.66861	-326.42452	845.97099	93.77778	-278.46590	775.71608	54.05127	-241.29424	1020.87316	60.43899	-238.40257	1003.43495	31.27834	-304.37112	965.59212	408.48251	-31.74560	973.26663	545.98415	-22.65562	895.95877	460.35934	-31.76958	808.04812	425.95734	-343.75982	809.40161	306.02475	-334.09451	995.95931	887.11164	-18.97838	1051.88291	794.78237	-24.62494	1014.78788	743.93306	0.06077	898.88550	826.94689	-19.34798	961.88520	730.45642	-15.08011	941.05997	862.40077	-368.49241	948.18374	726.20146	-352.78093	821.90262	854.75326	-372.67760	839.75659	712.94027	-360.43525	956.85634	1055.72123	-75.71865	760.56143	1090.57748	-144.34389	951.99455	1056.29694	-335.17767	756.19371	1095.30892	-248.32832	758.58274	1601.26267	-224.32140	816.57172	1561.27619	-44.21362	838.81186	1558.49382	-381.79353	908.25821	1531.70963	-182.97879	911.80649	1527.48211	-236.65008	804.71395	1296.33742	60.16715	765.38793	1196.79656	-3.02729	785.09191	1210.93822	77.96110	864.56204	1071.85575	97.28957	914.97627	967.29011	89.73870	874.36270	964.79485	111.14245	892.02246	1306.05758	-475.89489	848.44729	1200.43140	-432.86170	889.16770	1216.23334	-490.44219	995.59174	1078.48226	-488.63233	1055.08755	1000.35046	-467.11178	1028.62206	983.86070	-491.66644	874.10829	974.81484	-79.87582	868.72965	977.64612	-310.15810	886.94794	973.51553	-113.25426	879.76326	981.29358	-284.19940	
91	0.90000000	1070.47623	579.61828	-44.70176	1055.77461	499.66216	-32.14993	812.75007	233.53509	-79.55119	742.38449	223.57808	-135.32424	890.02493	92.44610	-39.11136	940.20823	98.53535	-91.57888	873.37821	537.84681	-323.67864	902.87879	418.10908	-325.74324	846.26520	93.91317	-278.05690	775.80561	54.22692	-241.23986	1020.87081	59.99409	-238.32955	1003.41711	31.17655	-304.40401	990.20868	406.44777	-32.89700	991.68520	543.96382	-23.97066	918.32943	454.93565	-32.39000	813.10689	426.70505	-342.80170	812.68862	306.76401	-333.41773	1010.03068	889.03814	-19.82889	1067.09818	797.48290	-26.15355	1031.18435	746.39655	-1.14282	913.59384	827.86246	-18.99568	977.96797	732.36358	-15.24335	949.28757	861.70926	-368.75817	955.91767	725.59050	-352.73035	830.19942	855.18315	-371.78456	847.30710	713.08016	-359.53557	968.84065	1056.00624	-76.54522	772.01902	1090.69580	-143.46497	961.92871	1055.89394	-335.97248	766.85889	1095.40841	-247.33645	770.68170	1601.53414	-224.21940	828.93758	1561.09941	-44.24773	850.80483	1558.99606	-381.86257	920.27484	1531.51622	-183.15292	923.79193	1527.40618	-236.81044	814.41971	1296.02370	59.83440	774.69316	1196.93266	-3.70029	793.97944	1210.91410	77.29124	870.75376	1070.53890	97.40759	919.19540	964.90987	90.38116	878.47268	963.31589	111.55570	907.37367	1307.74697	-476.48936	866.44419	1201.16674	-433.11811	906.53486	1217.81068	-491.00324	1017.27343	1083.38601	-489.12393	1079.75175	1007.57635	-467.60137	1053.48613	989.91417	-491.91532	886.08497	975.09229	-79.74965	878.73168	977.42295	-309.98297	898.66939	973.41256	-113.53807	890.17551	981.16580	-284.43453	
92	0.91000000	1087.17169	581.13438	-46.78542	1075.68586	500.47880	-33.76872	846.44593	221.73712	-79.13876	776.11733	206.58272	-134.20595	933.53606	86.74452	-38.58333	982.61573	95.86551	-91.65582	880.03625	537.71597	-322.96276	907.95289	417.46682	-325.07953	846.57101	94.07456	-277.69085	775.94446	54.39780	-241.16422	1020.94000	59.58607	-238.26499	1003.43875	31.07935	-304.43795	1014.81238	404.05825	-33.90280	1009.82939	541.22248	-25.11620	940.75608	448.87082	-32.72993	818.33952	427.37052	-341.98226	816.14902	307.43533	-332.85853	1023.83648	890.56345	-20.59556	1081.83406	799.60657	-27.63127	1046.92236	748.34239	-2.29403	927.96579	828.49332	-18.66923	993.54261	734.04525	-15.36180	957.60005	860.93520	-369.03584	963.75516	724.87082	-352.79380	838.76110	855.42026	-370.87688	854.94983	713.14530	-358.71401	980.83663	1056.11997	-77.25453	783.56553	1090.76000	-142.56407	972.04330	1055.32228	-336.64103	777.67634	1095.46377	-246.33452	782.79998	1601.64302	-224.11003	841.34365	1560.75172	-44.25315	862.83681	1559.36182	-381.90791	932.31487	1531.17450	-183.33443	935.78504	1527.17477	-236.98772	824.21943	1295.56780	59.51093	784.01855	1196.99115	-4.32199	802.96807	1210.75516	76.66019	877.07297	1069.16925	97.54998	923.58454	962.56996	91.02752	882.77129	961.80274	111.91274	922.59628	1309.30153	-477.02836	884.24175	1201.89525	-433.28918	923.69477	1219.28919	-491.49213	1038.58335	1088.26715	-489.49169	1103.91242	1014.86298	-467.90519	1077.86818	996.01572	-491.96025	898.04076	975.24797	-79.55149	888.84933	977.08557	-309.72445	910.38703	973.17239	-113.74853	900.68913	980.91624	-284.59300	
